<?xml version="1.0" encoding="utf-8"?>
<!-- Generator: Adobe Illustrator 16.0.0, SVG Export Plug-In . SVG Version: 6.00 Build 0)  -->
<!DOCTYPE svg PUBLIC "-//W3C//DTD SVG 1.1//EN" "http://www.w3.org/Graphics/SVG/1.1/DTD/svg11.dtd">
<svg version="1.1" id="Layer_1" xmlns="http://www.w3.org/2000/svg" xmlns:xlink="http://www.w3.org/1999/xlink" x="0px" y="0px"
	 width="257px" height="62px" viewBox="0 0 257 62" enable-background="new 0 0 257 62" xml:space="preserve">
<path fill="#F68B1F" d="M61.3,30.8c-5.6-0.8-8.9-2.4-9.6-4.8c-0.6-2.4,1.5-5.5,5.9-9c0.2-0.2,0.3-0.5,0.2-0.8l0,0
	c-0.1-0.2-0.5-0.4-0.7-0.3c-5.2,2.1-8.9,2.4-10.7,0.6C44.6,14.7,44.9,11,47,5.8c0.1-0.3,0-0.6-0.3-0.7l0,0C46.3,4.9,46,5,45.8,5.2
	c-3.5,4.4-6.6,6.5-9,5.9c-2.4-0.7-4-4-4.8-9.6C32,1.2,31.7,1,31.4,1l0,0c-0.3,0-0.6,0.2-0.6,0.5c-0.8,5.6-2.4,8.9-4.8,9.6
	c-2.4,0.6-5.5-1.5-9-5.9C16.8,5,16.5,4.9,16.2,5c-0.2,0.1-0.4,0.5-0.3,0.7c2.1,5.2,2.4,8.9,0.6,10.7c-1.8,1.8-5.5,1.5-10.7-0.6
	c-0.3-0.1-0.6,0-0.7,0.3C4.9,16.4,5,16.8,5.2,17c4.4,3.5,6.5,6.6,5.9,9c-0.7,2.4-4,4-9.6,4.8c-0.3,0-0.5,0.3-0.5,0.6
	C1,31.7,1.2,32,1.5,32c5.6,0.8,8.9,2.4,9.6,4.8c0.6,2.4-1.5,5.5-5.9,9C5,46,4.9,46.3,5.1,46.6C5.2,46.8,5.6,47,5.8,46.9
	C11,44.8,14.7,44.5,16.5,46.3S18,51.8,15.9,57c-0.1,0.3,0,0.6,0.3,0.7c0.3,0.1,0.6,0.1,0.8-0.2c3.5-4.4,6.6-6.5,9-5.9
	c2.4,0.602,4,4,4.8,9.602c0,0.3,0.3,0.5,0.6,0.5c0.3,0,0.5-0.2,0.6-0.5c0.8-5.602,2.4-8.9,4.8-9.602c2.4-0.6,5.5,1.5,9,5.9
	c0.2,0.2,0.5,0.3,0.8,0.2l0,0c0.2-0.101,0.4-0.5,0.3-0.7c-2.1-5.2-2.4-8.9-0.6-10.7c1.8-1.8,5.5-1.5,10.7,0.601
	c0.3,0.101,0.6,0,0.7-0.301l0,0c0.1-0.199,0.1-0.6-0.2-0.8c-4.4-3.5-6.5-6.6-5.9-9c0.7-2.399,4-4,9.6-4.8c0.3,0,0.5-0.3,0.5-0.6l0,0
	C61.8,31.1,61.5,30.8,61.3,30.8z"/>
<circle fill="#ED2924" cx="31.4" cy="31.4" r="15.2"/>
<path fill="#FFFFFF" d="M27.4,28.5c0.3-0.1,0.6,0.1,0.6,0.5c0,0.3-0.3,0.6-0.7,0.7c-0.3,0.1-0.6-0.1-0.6-0.5
	C26.7,28.9,27,28.6,27.4,28.5 M23.7,30.7c0.3-1.1,0.7-2.2,1-3.1c-0.7,0.9-1.5,2.1-2.2,3.3C22.9,30.9,23.3,30.8,23.7,30.7 M29.8,29.9
	c0.3,0,0.9,0.3,0.6,0.6c-0.3,0.3-0.6,0.3-1.2,0.5c-0.3,0.1-0.5,0.4-0.9,0.9c-0.4,0.6-0.6,1.199-0.6,1.699c0,0.102,0,0.2-0.1,0.2
	c-0.7,0.5-0.9,0.101-0.9-0.3c0-0.1,0-0.3,0.1-0.4c-0.5,0.801-1,1.2-1.3,1.301c-0.4,0.101-0.6-0.199-0.6-0.699c0-0.2,0.1-0.5,0.2-0.9
	c0.1-0.398,0.4-0.9,0.6-1.3c0.1-0.1,0.1-0.2,0.1-0.3c-0.3,0.1-0.8,0.2-1.3,0.3l0,0c-0.2,1-0.2,1.399-0.4,2.3
	c-0.1,0.4,0,0.801-0.4,0.9c-0.5,0.1-0.6-0.4-0.6-0.801c0-0.399,0.1-0.899,0.4-2.199C23,31.8,22.5,32,22,32.1l0,0
	c-0.9,1.602-1.7,3.5-1.8,4.102c-0.1,0.5-0.3,0.699-0.7,0.5c-0.3-0.102-0.5-0.5-0.4-0.9c0.2-0.699,0.9-2.199,1.5-3.3l0,0
	c-0.4,0.2-0.8,0.399-1.2,0.5c-0.2,0.101-0.5,0-0.6-0.3c0-0.2-0.1-0.602,0.3-0.7c0.7-0.3,1.4-0.6,2.2-0.8c1.6-2.6,3.5-5.4,4.1-5.3
	c0.2,0,0.2,0.3,0.4,0.5c0.2,0.2,0.2,0.4,0,1c-0.5,1.3-0.5,1-1,3c0.9-0.2,1.7-0.2,1.8-0.3c0.3,0,0.7,0.1,0.5,0.6c0,0-0.2,0.4-0.3,0.6
	c-0.2,0.301-0.4,0.801-0.5,1.102C26,32.8,26,32.9,26,33s0,0.1,0.1,0.1s0.2-0.1,0.3-0.199c0.1-0.101,0.5-0.5,1.3-1.699l0.2-0.4
	c0.1-0.1,0.1-0.3,0.2-0.4c0-0.1,0-0.2,0.1-0.3c0.2-0.1,0.5-0.2,0.7-0.1c0.2,0.1,0.1,0.4,0,0.6C29.5,29.9,29.6,29.9,29.8,29.9
	 M42.2,32c0.4-0.4,0.9-1.4,0.9-1.7c0-0.1,0-0.2-0.1-0.2s-0.4,0.2-0.7,0.6c-0.4,0.5-0.9,1.399-0.9,1.7c0,0.1,0,0.199,0.1,0.199
	C41.6,32.5,41.9,32.3,42.2,32 M44.3,31.2c0.2-0.2,0.5-0.2,0.4,0.1c-0.1,0.2-0.2,0.5-0.6,0.9c-0.4,0.6-0.9,0.8-1.2,0.899
	c-0.3,0-0.5-0.101-0.6-0.399V32.6c0,0,0-0.1-0.1-0.1c0,0,0,0-0.1,0.1c-0.4,0.4-0.7,0.602-1,0.7C40.6,33.4,40.3,33,40.3,32.4
	C40.2,32.6,40,32.8,39.9,32.9c-0.4,0.5-0.7,0.699-1.1,0.8c-0.4,0.1-0.6-0.2-0.6-0.8c0-0.2,0.1-0.5,0.3-0.9s0.4-0.8,0.6-1.2
	c0.2-0.3,0.4-0.7,0.4-0.8s0-0.1,0.1-0.2c0.1-0.1,0.3-0.1,0.4-0.2c0.3,0,0.7,0.2,0.4,0.6l-0.1,0.2c0,0-0.2,0.4-0.3,0.5
	c-0.2,0.3-0.4,0.7-0.6,1c-0.1,0.199-0.1,0.3-0.2,0.399c0,0.101,0,0.101,0.1,0.101c0.1,0,0.2-0.101,0.3-0.199
	c0.1-0.102,0.2-0.2,0.5-0.6l0.1-0.101c0.1-0.1,0.8-1,1-1.2c0.5-0.6,1.2-1.1,1.6-1.2c0.3,0,0.5,0.1,0.6,0.3c0.1,0.2,0.1,0.2,0.3,0.3
	c0.3,0.1,0.4,0.2,0.3,0.3c0,0.1,0,0.2-0.2,0.5c-0.1,0.2-0.3,0.5-0.4,0.6c-0.2,0.4-0.3,0.7-0.1,0.799c0.1,0,0.2,0,0.4-0.199
	C44,31.7,44.1,31.5,44.3,31.2 M40.7,29.2c0.3-0.1,0.6-0.4,0.7-0.7c0-0.3-0.2-0.5-0.6-0.5c-0.3,0.1-0.6,0.4-0.7,0.7
	C40.1,29,40.4,29.2,40.7,29.2 M35.5,27.7c-0.7,0.9-1.5,2.1-2.2,3.3c0.4-0.1,0.8-0.2,1.1-0.2C34.8,29.6,35.2,28.5,35.5,27.7
	 M35.7,30.5c0.2,0,0.9-0.1,0.8,0.2c0,0.4-0.2,0.4-0.8,0.6c-0.1,0-0.2,0.1-0.4,0.1l0,0c-0.2,1-0.2,1.4-0.4,2.3
	c-0.1,0.399,0,0.8-0.4,0.899C34,34.7,33.9,34.2,33.9,33.8c0-0.7,0.4-2.2,0.4-2.2c-0.5,0.101-1,0.301-1.5,0.4c-0.6,1-1.7,3.5-1.9,4.2
	c-0.1,0.5-0.3,0.7-0.7,0.5c-0.3-0.101-0.5-0.5-0.4-0.9c0.3-1,1.5-3.3,1.5-3.3c-0.4,0.2-0.8,0.4-1.2,0.6c-0.2,0.102-0.5,0-0.6-0.3
	c0-0.2-0.1-0.6,0.3-0.7c0.7-0.3,1.4-0.6,2.2-0.8c1.6-2.6,3.5-5.3,4.1-5.3c0.2,0,0.2,0.3,0.4,0.5s0.2,0.4,0,1c-0.5,1.3-0.5,1-1,3
	C35.6,30.6,35.7,30.6,35.7,30.5 M36.5,34.2c0.4,0,1.5-0.3,1.5-1.5c0-0.5-0.5-0.7-0.6-1.101c-0.1-0.2-0.1-0.6,0.3-0.8
	c0.4-0.2,0.5,0.1,0.6,0.3c0.1,0.1,0.2,0.1,0.3,0s0.2-0.2,0.3-0.5c0-0.2-0.2-0.6-0.8-0.6c-0.2,0-0.6,0-1,0.5
	c-0.2,0.2-0.9,1.1-0.4,1.9c0.1,0.199,0.5,0.5,0.3,0.699c-0.3,0.301-0.9-0.199-1-0.301c0-0.1-0.2-0.1-0.3,0
	c-0.1,0.102-0.3,0.5-0.3,0.7C35.5,34.1,36.2,34.2,36.5,34.2"/>
<g>
	<g>
		<path fill="#F68B1F" d="M128.5,48.3c0-0.3,0.2-0.5,0.5-0.5s0.5,0.2,0.5,0.5V51.9h5.2V48.3c0-0.3,0.2-0.5,0.5-0.5s0.5,0.2,0.5,0.5
			v8.2c0,0.3-0.2,0.5-0.5,0.5s-0.5-0.2-0.5-0.5v-3.6h-5.2v3.6c0,0.3-0.2,0.5-0.5,0.5s-0.5-0.2-0.5-0.5V48.3z"/>
		<path fill="#F68B1F" d="M137.1,53.6L137.1,53.6c0-1.898,1.5-3.5,3.5-3.5s3.5,1.602,3.5,3.5l0,0c0,1.9-1.5,3.5-3.5,3.5
			C138.5,57.1,137.1,55.5,137.1,53.6z M143.1,53.6L143.1,53.6c0-1.5-1.1-2.6-2.5-2.6c-1.5,0-2.5,1.2-2.5,2.6l0,0
			c0,1.4,1.102,2.602,2.5,2.602C142,56.2,143.1,55,143.1,53.6z"/>
		<path fill="#F68B1F" d="M145.6,55.2v-4H145c-0.2,0-0.4-0.2-0.4-0.4s0.2-0.399,0.4-0.399h0.5V48.8c0-0.3,0.2-0.5,0.5-0.5
			s0.5,0.2,0.5,0.5V50.4h1.7c0.3,0,0.5,0.199,0.5,0.398c0,0.2-0.2,0.4-0.5,0.4h-1.7V55c0,0.8,0.5,1.1,1.1,1.1
			c0.301,0,0.5-0.1,0.602-0.1c0.199,0,0.398,0.2,0.398,0.4c0,0.199-0.1,0.3-0.3,0.398c-0.3,0.102-0.6,0.2-1,0.2
			C146.4,57.1,145.6,56.5,145.6,55.2z"/>
		<path fill="#F68B1F" d="M152.6,57.1c-1.8,0-3.398-1.398-3.398-3.5l0,0c0-1.898,1.398-3.5,3.199-3.5c2,0,3.101,1.602,3.101,3.4
			c0,0.3-0.2,0.5-0.5,0.5h-4.899c0.101,1.5,1.199,2.3,2.399,2.3c0.8,0,1.399-0.3,1.899-0.8c0.101-0.1,0.199-0.1,0.301-0.1
			c0.199,0,0.398,0.199,0.398,0.398c0,0.102-0.1,0.2-0.199,0.301C154.5,56.7,153.7,57.1,152.6,57.1z M154.6,53.2
			c-0.1-1.2-0.8-2.3-2.1-2.3c-1.2,0-2.1,1-2.2,2.3H154.6z"/>
		<path fill="#F68B1F" d="M156.8,47.9c0-0.301,0.2-0.5,0.5-0.5s0.5,0.199,0.5,0.5v8.6c0,0.3-0.2,0.5-0.5,0.5s-0.5-0.2-0.5-0.5V47.9z
			"/>
		<path fill="#F68B1F" d="M159.1,56.2C159,56.1,158.9,56,158.9,55.8S159.1,55.4,159.3,55.4c0.101,0,0.2,0,0.2,0.1
			c0.7,0.5,1.4,0.7,2.1,0.7c0.801,0,1.4-0.4,1.4-1.101l0,0c0-0.699-0.8-0.899-1.7-1.199c-1.1-0.301-2.2-0.7-2.2-1.9l0,0
			c0-1.2,1-1.9,2.301-1.9c0.699,0,1.5,0.2,2.101,0.602c0.101,0.1,0.2,0.199,0.2,0.398c0,0.2-0.2,0.4-0.4,0.4
			c-0.1,0-0.199,0-0.199-0.1c-0.601-0.301-1.199-0.5-1.801-0.5c-0.8,0-1.3,0.398-1.3,1l0,0c0,0.6,0.8,0.898,1.7,1.199
			c1,0.301,2.199,0.699,2.199,1.899l0,0c0,1.3-1,2-2.399,2C160.8,57.1,159.8,56.8,159.1,56.2z"/>
	</g>
	<g>
		<g>
			<path fill="#F68B1F" d="M66.3,48.3c0-0.3,0.2-0.5,0.5-0.5c0.3,0,0.5,0.2,0.5,0.5V51.9h5.2V48.3c0-0.3,0.2-0.5,0.5-0.5
				s0.5,0.2,0.5,0.5v8.2c0,0.3-0.2,0.5-0.5,0.5s-0.5-0.2-0.5-0.5v-3.6h-5.2v3.6c0,0.3-0.2,0.5-0.5,0.5c-0.3,0-0.5-0.2-0.5-0.5V48.3z
				"/>
			<path fill="#F68B1F" d="M75,53.6L75,53.6c0-1.898,1.5-3.5,3.5-3.5S82,51.7,82,53.6l0,0c0,1.9-1.5,3.5-3.5,3.5
				C76.4,57.1,75,55.5,75,53.6z M80.9,53.6L80.9,53.6c0-1.5-1.1-2.6-2.5-2.6S76,52.2,76,53.6l0,0c0,1.4,1.1,2.602,2.5,2.602
				S80.9,55,80.9,53.6z"/>
			<path fill="#F68B1F" d="M83.2,47.9c0-0.301,0.2-0.5,0.5-0.5c0.3,0,0.5,0.199,0.5,0.5v8.6c0,0.3-0.2,0.5-0.5,0.5
				c-0.3,0-0.5-0.2-0.5-0.5V47.9z"/>
			<path fill="#F68B1F" d="M85.9,48.1c0-0.3,0.3-0.5,0.6-0.5s0.6,0.2,0.6,0.5v0.2c0,0.3-0.3,0.5-0.6,0.5s-0.6-0.2-0.6-0.5V48.1z
				 M86,50.7c0-0.3,0.2-0.5,0.5-0.5s0.5,0.2,0.5,0.5v5.8c0,0.3-0.2,0.5-0.5,0.5S86,56.8,86,56.5V50.7z"/>
			<path fill="#F68B1F" d="M95,56.5c0,0.3-0.2,0.5-0.5,0.5S94,56.8,94,56.5v-0.9c-0.5,0.801-1.3,1.5-2.6,1.5c-1.6,0-3.2-1.3-3.2-3.5
				l0,0c0-2.199,1.6-3.5,3.2-3.5c1.2,0,2.1,0.7,2.6,1.4v-3.6c0-0.301,0.2-0.5,0.5-0.5S95,47.6,95,47.9V56.5z M89.3,53.6L89.3,53.6
				c0,1.602,1.1,2.602,2.4,2.602c1.2,0,2.4-1,2.4-2.602l0,0c0-1.5-1.2-2.6-2.4-2.6C90.3,51,89.3,51.9,89.3,53.6z"/>
			<path fill="#F68B1F" d="M96.1,55L96.1,55c0-1.4,1.2-2.2,2.9-2.2c0.9,0,1.5,0.101,2.1,0.3V52.9c0-1.2-0.7-1.801-2-1.801
				c-0.7,0-1.2,0.199-1.7,0.399c-0.1,0-0.1,0-0.2,0c-0.2,0-0.4-0.2-0.4-0.399s0.1-0.399,0.3-0.399c0.7-0.3,1.3-0.5,2.2-0.5
				c0.9,0,1.7,0.2,2.2,0.7s0.7,1.1,0.7,2V56.6c0,0.301-0.2,0.5-0.5,0.5c-0.3,0-0.5-0.199-0.5-0.5V56c-0.5,0.6-1.2,1.2-2.4,1.2
				C97.4,57.1,96.1,56.4,96.1,55z M101,54.5v-0.6c-0.5-0.102-1.2-0.301-2-0.301c-1.3,0-2,0.5-2,1.399l0,0c0,0.8,0.8,1.3,1.7,1.3
				C100,56.3,101,55.5,101,54.5z"/>
			<path fill="#F68B1F" d="M103.1,58.9c-0.2-0.102-0.3-0.2-0.3-0.4s0.2-0.4,0.4-0.4c0.1,0,0.2,0,0.2,0.102c0.2,0.1,0.4,0.1,0.7,0.1
				c0.6,0,1-0.398,1.3-1.199l0.1-0.101l-2.8-5.899c0-0.101-0.1-0.199-0.1-0.301c0-0.3,0.2-0.5,0.5-0.5c0.3,0,0.4,0.2,0.5,0.4
				l2.3,5.3l2.1-5.3c0.1-0.2,0.2-0.4,0.5-0.4s0.5,0.2,0.5,0.5c0,0.102,0,0.2-0.1,0.2l-2.6,6.3c-0.6,1.4-1.2,1.9-2.2,1.9
				C103.8,59.1,103.4,59,103.1,58.9z"/>
		</g>
		<path fill="#F68B1F" d="M109.6,56.2c-0.1-0.101-0.2-0.2-0.2-0.4s0.2-0.399,0.4-0.399c0.1,0,0.2,0,0.2,0.101
			c0.7,0.5,1.4,0.7,2.1,0.7c0.8,0,1.4-0.4,1.4-1.102l0,0c0-0.699-0.8-0.898-1.7-1.199c-1.1-0.301-2.2-0.699-2.2-1.899l0,0
			c0-1.2,1-1.899,2.3-1.899c0.7,0,1.5,0.199,2.1,0.601c0.1,0.1,0.2,0.2,0.2,0.399s-0.2,0.399-0.4,0.399c-0.1,0-0.2,0-0.2-0.101
			c-0.6-0.301-1.2-0.5-1.8-0.5c-0.8,0-1.3,0.399-1.3,1l0,0c0,0.601,0.8,0.899,1.7,1.199c1,0.301,2.2,0.7,2.2,1.9l0,0
			c0,1.3-1,2-2.4,2C111.3,57.1,110.4,56.8,109.6,56.2z"/>
	</g>
	<g>
		<path fill="#F68B1F" d="M177.7,48.4c0-0.301,0.2-0.5,0.5-0.5h5.6c0.3,0,0.5,0.199,0.5,0.5c0,0.3-0.2,0.5-0.5,0.5h-5.1V52.1h4.5
			c0.3,0,0.5,0.2,0.5,0.5c0,0.301-0.2,0.5-0.5,0.5h-4.5v3.5c0,0.301-0.2,0.5-0.5,0.5s-0.5-0.199-0.5-0.5V48.4z"/>
		<path fill="#F68B1F" d="M190.8,56.5c0,0.3-0.2,0.5-0.5,0.5s-0.5-0.2-0.5-0.5v-0.7c-0.5,0.7-1.1,1.3-2.3,1.3
			c-1.6,0-2.6-1.1-2.6-2.699v-3.699c0-0.301,0.199-0.5,0.5-0.5c0.3,0,0.5,0.199,0.5,0.5v3.5c0,1.199,0.699,2,1.898,2
			c1.102,0,2-0.801,2-2.102V50.7c0-0.3,0.2-0.5,0.5-0.5c0.301,0,0.5,0.2,0.5,0.5L190.8,56.5L190.8,56.5z"/>
		<path fill="#F68B1F" d="M192.4,50.7c0-0.3,0.199-0.5,0.5-0.5c0.3,0,0.5,0.2,0.5,0.5v0.7c0.398-0.7,1.1-1.301,2.3-1.301
			c1.6,0,2.6,1.101,2.6,2.699v3.7c0,0.3-0.2,0.5-0.5,0.5s-0.5-0.2-0.5-0.5V53c0-1.2-0.7-2-1.899-2s-2,0.8-2,2.1v3.4
			c0,0.3-0.199,0.5-0.5,0.5s-0.5-0.2-0.5-0.5V50.7L192.4,50.7z"/>
	</g>
	<path fill="#F68B1F" d="M122.2,53.5c0,0.6-0.5,1-1,1c-0.6,0-1-0.5-1-1c0-0.6,0.5-1,1-1S122.2,52.9,122.2,53.5z"/>
	<circle fill="#F68B1F" cx="170.5" cy="53.5" r="1"/>
</g>
<g>
	<g>
		<g>
			<path fill="#ED2924" d="M83.6,42c-0.6,0-1.1-0.4-1.4-1l-2-4.4H69.7l-2,4.5c-0.3,0.602-0.7,1-1.4,1c-0.7,0-1.3-0.6-1.3-1.3
				c0-0.3,0.1-0.5,0.2-0.7l8.1-17.7c0.4-0.8,0.9-1.2,1.7-1.2h0.1c0.8,0,1.4,0.4,1.7,1.2l8.1,17.7c0.1,0.301,0.2,0.5,0.2,0.7
				C85,41.4,84.4,42,83.6,42z M70.8,33.9H79L74.9,24.8L70.8,33.9z"/>
		</g>
		<g>
			<path fill="#ED2924" d="M88.6,42c-0.8,0-1.4-0.6-1.4-1.4V27.8c0-0.8,0.6-1.4,1.4-1.4c0.8,0,1.4,0.6,1.4,1.4v12.8
				C90,41.4,89.4,42,88.6,42z M88.6,24c-0.9,0-1.6-0.6-1.6-1.5v-0.4c0-0.9,0.7-1.5,1.6-1.5s1.6,0.6,1.6,1.5v0.4
				C90.2,23.4,89.5,24,88.6,24z"/>
		</g>
		<g>
			<path fill="#ED2924" d="M94.7,42c-0.8,0-1.4-0.6-1.4-1.4V27.8c0-0.8,0.6-1.4,1.4-1.4c0.8,0,1.4,0.6,1.4,1.4v1.5
				c1.2-1.8,3-3,4.8-3c0.8,0,1.4,0.6,1.4,1.4c0,0.7-0.5,1.3-1.2,1.4c-3.1,0.4-4.9,2.8-4.9,6.4v5C96,41.4,95.4,42,94.7,42z"/>
		</g>
		<g>
			<path fill="#ED2924" d="M118.5,42c-0.6,0-1.1-0.4-1.4-1l-2-4.4h-10.5l-2,4.5c-0.3,0.602-0.7,1-1.4,1c-0.7,0-1.3-0.6-1.3-1.3
				c0-0.3,0.1-0.5,0.2-0.7l8.1-17.7c0.4-0.8,0.9-1.2,1.7-1.2h0.1c0.8,0,1.4,0.4,1.7,1.2l8.1,17.7c0.1,0.301,0.2,0.5,0.2,0.7
				C119.8,41.4,119.2,42,118.5,42z M105.7,33.9h8.2l-4.1-9.102L105.7,33.9z"/>
		</g>
		<g>
			<path fill="#ED2924" d="M126.5,42.1c-2,0-4.2-0.699-5.9-1.898c-0.3-0.2-0.5-0.602-0.5-1c0-0.7,0.6-1.301,1.3-1.301
				c0.3,0,0.5,0.101,0.7,0.199c1.5,1,3,1.5,4.5,1.5c1.6,0,2.7-0.8,2.7-2c0-1.3-1.5-1.8-3.5-2.398c-2.2-0.602-5.1-1.4-5.1-4.5
				c0-2.7,2.2-4.6,5.3-4.6c1.6,0,3.3,0.5,4.9,1.3c0.398,0.3,0.699,0.7,0.699,1.2c0,0.7-0.601,1.2-1.301,1.2c-0.3,0-0.5-0.1-0.6-0.1
				c-1.3-0.7-2.6-1.1-3.7-1.1c-1.5,0-2.5,0.7-2.5,1.8c0,1.201,1.7,1.701,3.5,2.3c2,0.6,5,1.5,5,4.5
				C132.1,40.2,129.8,42.1,126.5,42.1z"/>
		</g>
		<g>
			<path fill="#ED2924" d="M135.9,42c-0.801,0-1.4-0.6-1.4-1.4V27.8c0-0.8,0.6-1.4,1.4-1.4c0.8,0,1.398,0.6,1.398,1.4v12.8
				C137.3,41.4,136.7,42,135.9,42z M135.9,24c-0.9,0-1.602-0.6-1.602-1.5v-0.4c0-0.9,0.7-1.5,1.602-1.5c0.898,0,1.6,0.6,1.6,1.5v0.4
				C137.5,23.4,136.8,24,135.9,24z"/>
		</g>
		<g>
			<path fill="#ED2924" d="M145.3,42.2c-2.899,0-5.8-1.7-5.8-4.9s2.5-5.1,6.6-5.1c1.801,0,3.102,0.2,4.2,0.5V32.6
				c0-3.1-2.2-3.7-4.1-3.7c-1.3,0-2.5,0.3-3.7,0.8c-0.2,0.1-0.4,0.1-0.5,0.1c-0.7,0-1.3-0.6-1.3-1.3c0-0.6,0.399-1,0.8-1.2
				c1.6-0.7,3.2-1,4.9-1c2.199,0,3.8,0.6,5,1.7c1.1,1.1,1.6,2.6,1.6,4.5v8.1c0,0.801-0.6,1.4-1.4,1.4c-0.8,0-1.398-0.6-1.398-1.3
				v-0.5C149.4,41.2,147.8,42.2,145.3,42.2z M146.4,34.4c-2.5,0-4,1-4,2.699c0,1.899,1.8,2.699,3.398,2.699
				c2.602,0,4.602-1.6,4.602-3.699V34.9C149,34.6,147.7,34.4,146.4,34.4z"/>
		</g>
		<g>
			<path fill="#ED2924" d="M166.4,42.2C160.1,42.2,155.6,37.8,155.6,31.6c0-6,4.699-10.7,10.801-10.7c2.898,0,5,0.6,7,2
				c0.3,0.2,1,0.9,1,2c0,1.4-1.102,2.5-2.5,2.5c-0.7,0-1.2-0.3-1.5-0.5c-1.301-0.9-2.5-1.3-4.2-1.3c-3,0-5.4,2.6-5.4,5.9
				c0,3.5,2.4,6.1,5.7,6.1c1.5,0,2.8-0.398,3.8-1V34.2h-2.7c-1.199,0-2.199-1-2.199-2.2s1-2.2,2.199-2.2h5c1.4,0,2.5,1.1,2.5,2.5
				v4.8c0,1.4-0.5,2.4-1.699,3.102C171.4,41.5,169,42.2,166.4,42.2z"/>
		</g>
		<g>
			<path fill="#ED2924" d="M185.5,42.2c-4.8,0-8.5-3.601-8.5-8.2c0-4.7,3.8-8.3,8.6-8.3c4.801,0,8.5,3.6,8.5,8.2
				C194.1,38.6,190.3,42.2,185.5,42.2z M185.5,30c-2.1,0-3.7,1.6-3.7,3.9c0,2.3,1.601,4,3.7,4c2.2,0,3.7-1.602,3.7-3.9
				S187.6,30,185.5,30z"/>
		</g>
		<g>
			<path fill="#ED2924" d="M207.5,42.2c-4.3,0-7.9-3.601-7.9-7.9c0-4.5,3.5-8.1,7.9-8.1c2.2,0,4,0.7,5.6,2.2c0.2,0.2,0.4,0.5,0.4,1
				c0,0.8-0.6,1.4-1.4,1.4c-0.3,0-0.699-0.1-0.898-0.3c-1-0.9-2.102-1.7-3.801-1.7c-2.801,0-5,2.4-5,5.4c0,3.1,2.199,5.5,5.101,5.5
				c1.399,0,2.7-0.601,3.899-1.7c0.199-0.2,0.5-0.4,0.801-0.4c0.699,0,1.3,0.602,1.3,1.301c0,0.301-0.101,0.699-0.399,0.899
				C211.6,41.4,209.8,42.2,207.5,42.2z"/>
		</g>
		<g>
			<path fill="#ED2924" d="M222.6,42.2c-4.5,0-7.898-3.5-7.898-7.9c0-4.5,3.5-8.1,8-8.1s8,3.5,8,7.899
				C230.7,38.7,227.1,42.2,222.6,42.2z M222.6,28.7c-2.898,0-5.1,2.3-5.1,5.399c0,3.101,2.3,5.5,5.1,5.5
				c2.9,0,5.102-2.301,5.102-5.399C227.8,31.1,225.5,28.7,222.6,28.7z"/>
		</g>
		<g>
			<path fill="#ED2924" d="M254.6,42c-0.8,0-1.398-0.6-1.398-1.4V33c0-2.7-1.2-4.1-3.5-4.1c-2.2,0-3.7,1.7-3.7,4.2v7.5
				c0,0.801-0.601,1.4-1.399,1.4c-0.801,0-1.399-0.6-1.399-1.4V32.9c0-2.602-1.3-4.102-3.5-4.102s-3.8,1.8-3.8,4.301v7.399
				c0,0.8-0.602,1.399-1.4,1.399s-1.4-0.601-1.4-1.399V27.8c0-0.8,0.602-1.4,1.4-1.4s1.4,0.6,1.4,1.4v0.6
				c0.898-1.1,2.199-2.2,4.5-2.2c2.1,0,3.8,0.9,4.8,2.7c1.3-1.8,3-2.7,5.2-2.7c3.6,0,5.8,2.4,5.8,6.2V40.6
				C256,41.4,255.4,42,254.6,42z"/>
		</g>
	</g>
	<circle fill="#ED2924" cx="196.7" cy="39.9" r="1.8"/>
</g>
</svg>
